<svg width="268" height="274" viewBox="0 0 268 274" fill="none" xmlns="http://www.w3.org/2000/svg">
<rect y="6" width="268" height="268" rx="39" fill="#3287B3"/>
<path d="M81.29 208.73C80.95 201.023 80.78 192.523 80.78 183.23C80.78 174.277 80.95 164.757 81.29 154.67C81.63 144.583 82.14 134.383 82.82 124.07C83.5 113.643 84.4067 103.5 85.54 93.64C83.7267 94.0933 81.97 94.5467 80.27 95C78.6834 95.34 77.21 95.7367 75.85 96.19L67.18 69.16C94.6067 62.7 117.443 59.47 135.69 59.47C172.75 59.47 191.28 73.58 191.28 101.8C191.28 115.06 186.86 125.6 178.02 133.42C169.18 141.127 156.203 146 139.09 148.04C149.403 156.767 159.773 163.963 170.2 169.63C180.74 175.183 191.393 179.887 202.16 183.74L183.46 208.73C177.453 206.577 171.163 203.573 164.59 199.72C158.017 195.867 151.5 191.617 145.04 186.97C138.58 182.323 132.403 177.62 126.51 172.86C120.73 168.1 115.573 163.68 111.04 159.6C110.927 167.42 110.813 175.353 110.7 183.4C110.7 191.333 110.7 199.55 110.7 208.05L109.68 209.07C105.373 209.07 100.727 209.07 95.74 209.07C90.8667 209.183 86.4467 209.41 82.48 209.75L81.29 208.73ZM134.16 86.5C130.987 86.5 127.7 86.67 124.3 87.01C120.9 87.2367 117.5 87.5767 114.1 88.03C113.647 94.3767 113.25 100.667 112.91 106.9C112.57 113.02 112.287 119.14 112.06 125.26C117.047 125.147 122.43 124.863 128.21 124.41C134.103 123.843 139.657 122.823 144.87 121.35C150.083 119.763 154.333 117.497 157.62 114.55C161.02 111.603 162.72 107.693 162.72 102.82C162.72 97.1533 160.397 93.0167 155.75 90.41C151.103 87.8033 143.907 86.5 134.16 86.5Z" fill="#FFB778"/>
</svg>
